# AST/ASF file generated using VICON BodyLanguage
# -----------------------------------------------
:version 1.10
:name VICON
:units
  mass 1.0
  length 0.45
  angle deg
:documentation
   .ast/.asf automatically generated from VICON data using
   VICON BodyBuilder and BodyLanguage model FoxedUp or BRILLIANT.MOD
:root
   order TX TY TZ RX RY RZ
   axis XYZ
   position 0 0 0  
   orientation 0 0 0 
:bonedata
  begin
     id 1 
     name lhipjoint
     direction 0.528046 -0.759594 0.379717 
     length 2.39752 
     axis 0 0 0  XYZ
  end
  begin
     id 2 
     name lfemur
     direction 0.34202 -0.939693 0  
     length 7.31175  
     axis 0 0 20  XYZ
    dof rx ry rz
    limits (-160.0 20.0)
           (-70.0 70.0)
           (-60.0 70.0)
  end
  begin
     id 3 
     name ltibia
     direction 0.34202 -0.939693 0   
     length 7.52482   
     axis 0 0 20   XYZ
    dof rx
    limits (-10.0 170.0)
  end
  begin
     id 4 
     name lfoot
     direction 0.0675379 -0.185559 0.980309   
     length 2.00961   
     axis -90 7.62852e-016 20   XYZ
    dof rx rz
    limits (-45.0 90.0)
           (-70.0 20.0)
  end
  begin
     id 5 
     name ltoes
     direction 1.5352e-011 -4.22286e-011 1   
     length 1.01383   
     axis -90 7.62852e-016 20   XYZ
    dof rx
    limits (-90.0 20.0)
  end
  begin
     id 6 
     name rhipjoint
     direction -0.510274 -0.769251 0.384544   
     length 2.36742  
     axis 0 0 0  XYZ 
  end
  begin
     id 7 
     name rfemur
     direction -0.34202 -0.939693 0   
     length 7.45325   
     axis 0 0 -20   XYZ
    dof rx ry rz
    limits (-160.0 20.0)
           (-70.0 70.0)
           (-70.0 60.0)
  end
  begin
     id 8 
     name rtibia
     direction -0.34202 -0.939693 0   
     length 7.49587   
     axis 0 0 -20   XYZ
    dof rx
    limits (-10.0 170.0)
 end
 begin
     id 9 
     name rfoot
     direction -0.106475 -0.292536 0.950308   
     length 2.20898  
     axis -90 -7.62852e-016 -20   XYZ
    dof rx rz
    limits (-45.0 90.0)
           (-20.0 70.0)
  end
  begin
     id 10 
     name rtoes
     direction -1.53597e-011 -4.22023e-011 1   
     length 1.10065   
     axis -90 -7.62852e-016 -20   XYZ
    dof rx
    limits (-90.0 20.0)
  end
  begin
     id 11 
     name lowerback
     direction 0.0260024 0.998026 -0.0571652   
     length 2.11214   
     axis 0 0 0   XYZ
    dof rx ry rz
    limits (-20.0 45.0)
           (-30.0 30.0)
           (-30.0 30.0)
  end
  begin
     id 12 
     name upperback
     direction 0.0216202 0.999542 -0.0211766   
     length 2.11689   
     axis 0 0 0   XYZ
    dof rx ry rz
    limits (-20.0 45.0)
           (-30.0 30.0)
           (-30.0 30.0)
  end
  begin
     id 13 
     name thorax
     direction 0.00883312 0.999944 0.00589057   
     length 2.11821   
     axis 0 0 0   XYZ
    dof rx ry rz
    limits (-20.0 45.0)
           (-30.0 30.0)
           (-30.0 30.0)
  end
  begin
     id 14 
     name lowerneck
     direction -0.059386 0.994433 0.0870401   
     length 1.81176   
     axis 0 0 0   XYZ
    dof rx ry rz
    limits (-20.0 45.0)
           (-30.0 30.0)
           (-30.0 30.0)
  end
  begin
     id 15 
     name upperneck
     direction 0.0506457 0.97328 -0.223967   
     length 1.82382   
     axis 0 0 0   XYZ
    dof rx ry rz
    limits (-20.0 45.0)
           (-30.0 30.0)
           (-30.0 30.0)
  end
  begin
     id 16
     name head
     direction 0.0205902 0.996147 -0.0852487  
     length 1.84805  
     axis 0 0 0   XYZ
    dof rx ry rz
    limits (-20.0 45.0)
           (-30.0 30.0)
           (-30.0 30.0)
  end
  begin
     id 17 
     name lclavicle
     direction 0.949493 0.303881 -0.0782325  
     length 3.60584  
     axis 0 0 0   XYZ
    dof ry rz
    limits (-20.0 10.0)
           (0.0 20.0)
  end
  begin
     id 18 
     name lhumerus
     direction 1 -4.48965e-011 1.48782e-027   
     length 4.95681   
     axis 180 -30 -90   XYZ
    dof rx ry rz
    limits (-60.0 90.0)
           (-90.0 90.0)
           (-90.0 90.0)
  end
  begin
     id 19
     name lradius
     direction 1 -4.48952e-011 2.06528e-027   
     length 3.40915   
     axis 180 -30 -90   XYZ
    dof rx
    limits (-10.0 170.0)
  end
  begin
     id 20
     name lwrist
     direction 1 -4.48964e-011 1.28021e-027   
     length 1.70457   
     axis -1.61767e-015 90 90   XYZ
    dof ry
    limits (-180.0 0.0)
 end
  begin
     id 21 
     name lhand
     direction 1 -4.49094e-011 2.54887e-027   
     length 0.616403   
     axis -1.63363e-015 90 90   XYZ
    dof rx rz
    limits (-90.0 90.0)
           (-45.0 45.0)
  end
  begin
     id 22 
     name lfingers
     direction 1 -4.49002e-011 5.11407e-027   
     length 0.49696   
     axis -3.26723e-015 90 90   XYZ
    dof rx
    limits (0.0 90.0)
  end
  begin
     id 23
     name lthumb
     direction 0.707107 -6.34998e-011 0.707107   
     length 0.713539   
     axis -90 45 -2.25915e-014   XYZ
    dof rx rz
    limits (-45.0 45.0)
           (-45.0 45.0)
  end
  begin
     id 24 
     name rclavicle
     direction -0.937751 0.334612 -0.0930482   
     length 3.46287  
     axis 0 0 0   XYZ 
    dof ry rz
    limits (-10.0 20.0)
           (-20.0 0.0)
  end
  begin
     id 25 
     name rhumerus
     direction -1 -4.48962e-011 3.59972e-027  
     length 5.352   
     axis 180 30 90   XYZ
    dof rx ry rz
    limits (-90.0 60.0)
           (-90.0 90.0)
           (-90.0 90.0)
  end
  begin
     id 26 
     name rradius
     direction -1 -4.48987e-011 -3.76925e-027   
     length 3.43721   
     axis 180 30 90   XYZ
    dof rx
    limits (-10.0 170.0)
  end
  begin
     id 27 
     name rwrist
     direction -1 -4.48943e-011 1.28112e-027   
     length 1.7186   
     axis -1.61767e-015 -90 -90   XYZ
    dof ry
    limits (-180.0 0.0)
  end
  begin
     id 28
     name rhand
     direction -1 -4.49027e-011 2.55483e-027   
     length 0.72009   
     axis -1.63363e-015 -90 -90   XYZ
    dof rx rz
    limits (-90.0 90.0)
           (-45.0 45.0)
  end
  begin
     id 29
     name rfingers
     direction -1 -4.48827e-011 5.14506e-027   
     length 0.580555   
     axis -3.26723e-015 -90 -90   XYZ
    dof rx
    limits (0.0 90.0)
  end
  begin
     id 30
     name rthumb
     direction -0.707107 -6.34936e-011 0.707107   
     length 0.833564   
     axis -90 -45 2.25915e-014   XYZ
    dof rx rz
    limits (-45.0 45.0)
           (-45.0 45.0)
  end
:hierarchy
  begin
    root lhipjoint rhipjoint lowerback
    lhipjoint lfemur
    lfemur ltibia
    ltibia lfoot
    lfoot ltoes
    rhipjoint rfemur
    rfemur rtibia
    rtibia rfoot
    rfoot rtoes
    lowerback upperback
    upperback thorax
    thorax lowerneck lclavicle rclavicle
    lowerneck upperneck
    upperneck head
    lclavicle lhumerus
    lhumerus lradius
    lradius lwrist
    lwrist lhand lthumb
    lhand lfingers
    rclavicle rhumerus
    rhumerus rradius
    rradius rwrist
    rwrist rhand rthumb
    rhand rfingers
  end

#!OML:ASF H:\Terrain\Patient Classification 1\Terrain2\Thursday\justin.ASF
:FULLY-SPECIFIED
:DEGREES
899
root 14.0927 20.2701 -11.1742 -250.907 -82.62 -104.007
lowerback 12.1235 2.43547 0.0172052
upperback 3.52349 3.14621 1.92193
thorax -3.20718 1.49167 1.53212
lowerneck -13.3617 -0.00280118 -8.33823
upperneck 37.0381 -1.39213 6.39791
head 15.2646 -1.36255 3.85534
rclavicle 1.83876e-014 -1.03368e-014
rhumerus -27.0375 -7.59303 -82.3161
rradius 31.4544
rwrist -7.95411
rhand -20.4868 16.1897
rfingers 7.12502
rthumb 5.86988 -13.709
lclavicle 1.83876e-014 -1.03368e-014
lhumerus -32.7916 5.90049 80.997
lradius 40.5329
lwrist 8.59536
lhand -19.8535 20.3691
lfingers 7.12502
lthumb 6.48123 50.2499
rfemur -8.82188 -15.1289 24.6245
rtibia 51.9559
rfoot 1.10575 -12.3584
rtoes 22.068
lfemur -31.3826 3.08995 -12.0127
ltibia 41.9142
lfoot -8.91175 -9.85773
ltoes 17.5035
900
root 14.024 20.3366 -11.1724 -251.846 -82.7227 -103.227
lowerback 12.0997 2.36835 -0.150156
upperback 3.54253 3.0357 1.87196
thorax -3.17711 1.43771 1.5918
lowerneck -13.5297 0.0879132 -8.06911
upperneck 37.2303 -1.27459 6.2236
head 15.3836 -1.30554 3.75961
rclavicle 1.09332e-015 7.15625e-015
rhumerus -26.9045 -7.53982 -82.4149
rradius 32.2042
rwrist -8.57611
rhand -20.4097 16.0474
rfingers 7.12502
rthumb 5.94427 -13.8493
lclavicle 1.09332e-015 7.15625e-015
lhumerus -32.7505 5.925 80.7381
lradius 40.9577
lwrist 8.823
lhand -19.9887 20.5385
lfingers 7.12502
lthumb 6.35072 50.4233
rfemur -9.61939 -15.2854 24.4963
rtibia 53.6239
rfoot -0.637504 -12.4539
rtoes 23.8217
lfemur -30.2231 2.90818 -12.0907
ltibia 40.5812
lfoot -8.54546 -9.76677
ltoes 17.9839
901
root 13.9554 20.394 -11.1775 -252.045 -82.9895 -103.211
lowerback 12.0028 2.30335 -0.598299
upperback 3.60268 2.89287 1.79405
thorax -3.07518 1.3679 1.78835
lowerneck -13.4809 0.198711 -7.85968
upperneck 37.1782 -1.12836 6.1063
head 15.3282 -1.22965 3.69129
rclavicle 7.35503e-015 3.97569e-016
rhumerus -26.7115 -7.47434 -82.5201
rradius 32.9456
rwrist -9.0975
rhand -20.3073 16.033
rfingers 7.12502
rthumb 6.04316 -13.8608
lclavicle 7.35503e-015 3.97569e-016
lhumerus -32.6587 5.9819 80.5268
lradius 41.2838
lwrist 9.08087
lhand -20.3983 20.7928
lfingers 7.12502
lthumb 5.9553 50.6891
rfemur -10.3829 -15.377 24.1914
rtibia 55.1969
rfoot -2.1866 -12.3086
rtoes 24.1563
lfemur -29.0161 2.68267 -12.3384
ltibia 39.2492
lfoot -8.40379 -9.61346
ltoes 18.0922
902
root 13.8898 20.4442 -11.1776 -251.988 -83.3008 -103.402
lowerback 11.8684 2.23385 -1.03133
upperback 3.6563 2.74815 1.72376
thorax -2.95718 1.29658 1.98551
lowerneck -13.3721 0.281708 -7.77659
upperneck 37.0892 -1.00153 6.02242
head 15.2444 -1.1746 3.65494
rclavicle -2.26615e-014 -2.82274e-014
rhumerus -26.5291 -7.17839 -82.5952
rradius 33.7804
rwrist -9.7845
rhand -20.3901 16.0895
rfingers 7.12502
rthumb 5.96323 -13.8065
lclavicle -2.26615e-014 -2.82274e-014
lhumerus -32.4606 6.01209 80.3936
lradius 41.5672
lwrist 9.67891
lhand -20.7572 20.9108
lfingers 7.12502
lthumb 5.60881 50.8166
rfemur -11.1825 -15.4232 23.8273
rtibia 56.6339
rfoot -3.62753 -12.0856
rtoes 23.7266
lfemur -27.9276 2.5828 -12.69
ltibia 37.9632
lfoot -8.25686 -9.51244
ltoes 17.9394
903
root 13.8242 20.4972 -11.1723 -252.31 -83.6752 -103.325
lowerback 11.8968 2.19529 -1.41385
upperback 3.69159 2.649 1.63748
thorax -2.94444 1.24759 2.12519
lowerneck -13.3652 0.289103 -7.88884
upperneck 37.2088 -0.999039 6.08681
head 15.3018 -1.18868 3.70731
rclavicle -8.64713e-015 -1.86858e-014
rhumerus -26.5237 -6.84872 -82.6068
rradius 34.7855
rwrist -10.6039
rhand -20.526 15.8728
rfingers 7.12502
rthumb 5.83201 -14.0269
lclavicle -8.64713e-015 -1.86858e-014
lhumerus -32.3257 6.0949 80.2977
lradius 41.8273
lwrist 10.0436
lhand -20.7499 20.9067
lfingers 7.12502
lthumb 5.6158 50.8123
rfemur -11.7918 -15.5343 23.3465
rtibia 57.8859
rfoot -5.03805 -11.8407
rtoes 22.4869
lfemur -26.8051 2.75791 -13.16
ltibia 36.7543
lfoot -7.87375 -9.67569
ltoes 17.8303
904
root 13.7558 20.5459 -11.1688 -253.11 -83.7306 -102.74
lowerback 11.8587 2.10424 -1.53005
upperback 3.70526 2.51607 1.6517
thorax -2.90842 1.18143 2.22625
lowerneck -13.4161 0.373407 -7.91265
upperneck 37.4012 -0.864669 6.03248
head 15.395 -1.15387 3.71702
rclavicle 1.90833e-014 2.38542e-015
rhumerus -26.552 -6.36574 -82.632
rradius 35.7696
rwrist -11.3415
rhand -20.5528 15.6677
rfingers 7.12502
rthumb 5.80615 -14.2328
lclavicle 1.90833e-014 2.38542e-015
lhumerus -32.3368 6.46584 80.1471
lradius 42.1192
lwrist 9.89424
lhand -20.6183 21.054
lfingers 7.12502
lthumb 5.74293 50.9562
rfemur -12.3774 -15.5647 23.2344
rtibia 58.9573
rfoot -6.23905 -11.3204
rtoes 21.6966
lfemur -25.7193 2.68982 -13.194
ltibia 35.6419
lfoot -7.59505 -9.60138
ltoes 18.0978
905
root 13.691 20.5852 -11.1675 -254.744 -83.5318 -101.298
lowerback 11.8623 1.98515 -1.29915
upperback 3.68371 2.38639 1.66204
thorax -2.91734 1.1174 2.12527
lowerneck -13.4026 0.478493 -7.75658
upperneck 37.4837 -0.745918 5.97246
head 15.4188 -1.09656 3.68401
rclavicle 6.75868e-015 6.36111e-015
rhumerus -26.5724 -5.91463 -82.7726
rradius 36.5795
rwrist -11.9871
rhand -20.8905 15.9023
rfingers 7.12502
rthumb 5.48005 -14.0068
lclavicle 6.75868e-015 6.36111e-015
lhumerus -32.3349 6.62977 79.8694
lradius 42.4281
lwrist 9.80846
lhand -20.7211 20.9947
lfingers 7.12502
lthumb 5.64361 50.8996
rfemur -12.977 -15.6165 23.4259
rtibia 59.9117
rfoot -7.12374 -10.4475
rtoes 21.6238
lfemur -24.6951 2.39446 -12.8663
ltibia 34.6009
lfoot -7.39322 -9.46633
ltoes 18.304
906
root 13.6251 20.6215 -11.1638 -256.589 -83.575 -99.7841
lowerback 11.9848 1.98916 -1.08868
upperback 3.70573 2.40841 1.51205
thorax -2.94736 1.12782 1.84424
lowerneck -13.273 0.38234 -7.69149
upperneck 37.4485 -0.986023 6.13613
head 15.3943 -1.16828 3.70119
rclavicle 1.0138e-014 -1.19271e-015
rhumerus -26.7096 -5.99625 -82.8485
rradius 37.516
rwrist -12.6331
rhand -21.2487 16.0681
rfingers 7.12502
rthumb 5.13426 -13.8497
lclavicle 1.0138e-014 -1.19271e-015
lhumerus -32.1773 6.12155 79.6867
lradius 42.6842
lwrist 10.0178
lhand -20.8201 20.6808
lfingers 7.12502
lthumb 5.54805 50.5882
rfemur -13.3926 -15.8316 23.2561
rtibia 60.7721
rfoot -7.98264 -9.59919
rtoes 20.9062
lfemur -23.5796 2.3802 -12.8919
ltibia 33.6221
lfoot -7.1667 -9.6323
ltoes 18.4023
907
root 13.5599 20.6544 -11.1585 -257.805 -84.072 -98.7681
lowerback 11.9242 2.03355 -1.44673
upperback 3.75466 2.41958 1.33292
thorax -2.87059 1.1334 1.86028
lowerneck -13.2795 0.241194 -7.75047
upperneck 37.5097 -1.23024 6.248
head 15.4529 -1.26755 3.72391
rclavicle 2.5842e-015 1.31198e-014
rhumerus -26.73 -6.20605 -82.754
rradius 38.5096
rwrist -13.2734
rhand -20.9688 15.7431
rfingers 7.12502
rthumb 5.40449 -14.168
lclavicle 2.5842e-015 1.31198e-014
lhumerus -31.8686 5.55658 79.6909
lradius 42.8713
lwrist 10.3427
lhand -20.5603 20.5994
lfingers 7.12502
lthumb 5.79889 50.5001
rfemur -13.9623 -16.0465 22.5781
rtibia 61.5456
rfoot -8.79242 -8.67126
rtoes 19.9466
lfemur -22.6557 2.54229 -13.5128
ltibia 32.6708
lfoot -6.99492 -9.83194
ltoes 17.8978
908
root 13.4987 20.686 -11.1598 -258.411 -84.4087 -98.1702
lowerback 11.7689 1.96755 -1.97405
upperback 3.69499 2.27986 1.35207
thorax -2.86253 1.06713 2.20072
lowerneck -13.316 0.286367 -7.84093
upperneck 37.6389 -1.10332 6.13228
head 15.5136 -1.24967 3.71546
rclavicle 3.27995e-015 5.96354e-015
rhumerus -26.7101 -5.88952 -82.6608
rradius 39.3483
rwrist -13.6153
rhand -20.7848 15.2037
rfingers 7.12502
rthumb 5.58213 -14.7028
lclavicle 3.27995e-015 5.96354e-015
lhumerus -31.8332 5.65781 79.6407
lradius 43.14
lwrist 10.4212
lhand -20.3583 20.5474
lfingers 7.12502
lthumb 5.99394 50.4427
rfemur -14.7489 -16.0597 22.2107
rtibia 62.1904
rfoot -9.43038 -7.67152
rtoes 18.3667
lfemur -21.9788 2.63938 -13.9007
ltibia 31.7722
lfoot -6.86912 -9.85114
ltoes 17.1564
909
root 13.44 20.7137 -11.1668 -259.488 -84.305 -97.2194
lowerback 11.804 1.87266 -2.08613
upperback 3.59767 2.14919 1.47156
thorax -2.98452 1.00612 2.40501
lowerneck -13.2418 0.404017 -7.87548
upperneck 37.6994 -0.886126 6.00846
head 15.5031 -1.18644 3.70315
rclavicle 3.08116e-014 1.55052e-014
rhumerus -26.8393 -5.15465 -82.703
rradius 40.2274
rwrist -14.1186
rhand -21.2368 14.8761
rfingers 7.12502
rthumb 5.14572 -15.0414
lclavicle 3.08116e-014 1.55052e-014
lhumerus -32.0588 5.91653 79.4969
lradius 43.5436
lwrist 10.3751
lhand -20.5802 20.5038
lfingers 7.12502
lthumb 5.77969 50.405
rfemur -15.3639 -15.8385 22.3894
rtibia 62.6715
rfoot -10.1467 -6.88775
rtoes 16.8141
lfemur -21.1941 2.53121 -13.7367
ltibia 30.9719
lfoot -6.83502 -9.69908
ltoes 16.0762
910
root 13.3835 20.7346 -11.172 -260.952 -84.2496 -95.9799
lowerback 11.8826 1.80922 -2.06403
upperback 3.57753 2.06633 1.4568
thorax -3.04232 0.965976 2.3871
lowerneck -13.2442 0.506601 -7.74993
upperneck 37.7806 -0.752278 5.93933
head 15.5293 -1.12689 3.67451
rclavicle 4.17448e-015 5.56597e-015
rhumerus -26.9016 -4.53555 -82.915
rradius 41.1611
rwrist -15.1118
rhand -21.9282 14.9758
rfingers 7.12502
rthumb 4.47811 -14.9569
lclavicle 4.17448e-015 5.56597e-015
lhumerus -32.0256 5.9272 79.328
lradius 43.8282
lwrist 10.4547
lhand -20.8058 20.8435
lfingers 7.12502
lthumb 5.56185 50.7505
rfemur -15.836 -15.7048 22.454
rtibia 62.9883
rfoot -10.8783 -6.08008
rtoes 15.0429
lfemur -20.3971 2.38166 -13.6235
ltibia 30.3136
lfoot -6.67431 -9.66959
ltoes 16.1024
911
root 13.3293 20.748 -11.1765 -262.985 -84.266 -94.0667
lowerback 11.8547 1.73234 -2.05011
upperback 3.54173 1.96627 1.37375
thorax -3.05529 0.918076 2.30734
lowerneck -13.1724 0.561116 -7.44934
upperneck 37.706 -0.704469 5.79377
head 15.4685 -1.08129 3.56036
rclavicle 2.28602e-014 -1.59028e-015
rhumerus -26.8676 -4.34052 -83.119
rradius 41.9356
rwrist -15.7489
rhand -22.3023 15.2473
rfingers 7.12502
rthumb 4.11686 -14.6927
lclavicle 2.28602e-014 -1.59028e-015
lhumerus -31.9048 5.76376 79.1897
lradius 44.0954
lwrist 10.5784
lhand -20.8837 21.3102
lfingers 7.12502
lthumb 5.48667 51.2192
rfemur -16.4053 -15.7399 22.4646
rtibia 63.1555
rfoot -11.4105 -5.27337
rtoes 12.4993
lfemur -19.8122 2.46283 -13.6147
ltibia 29.7204
lfoot -6.42192 -9.9825
ltoes 16.4947
912
root 13.2756 20.7603 -11.1811 -265.499 -84.2412 -91.6381
lowerback 11.8601 1.65405 -1.97117
upperback 3.47417 1.87252 1.29543
thorax -3.11839 0.874379 2.19378
lowerneck -13.087 0.535459 -7.16423
upperneck 37.5864 -0.765018 5.6386
head 15.3937 -1.08276 3.42626
rclavicle 1.09332e-014 1.59028e-015
rhumerus -26.8069 -4.40714 -83.2072
rradius 42.5081
rwrist -15.7185
rhand -22.3756 15.6101
rfingers 7.12502
rthumb 4.04612 -14.3312
lclavicle 1.09332e-014 1.59028e-015
lhumerus -31.9126 5.35316 79.0523
lradius 44.4841
lwrist 10.8194
lhand -20.8021 21.3686
lfingers 7.12502
lthumb 5.56543 51.2755
rfemur -16.9369 -15.6919 22.5322
rtibia 63.1536
rfoot -12.1085 -4.63052
rtoes 10.2928
lfemur -19.2888 2.57899 -13.5703
ltibia 29.1556
lfoot -6.14462 -10.5067
ltoes 17.2153
